<?xml version="1.0" encoding="UTF-8"?>
<!DOCTYPE svg PUBLIC "-//W3C//DTD SVG 1.1//EN" "http://www.w3.org/Graphics/SVG/1.1/DTD/svg11.dtd">
<svg xmlns="http://www.w3.org/2000/svg" version="1.1" width="50px" height="61px" style="shape-rendering:geometricPrecision; text-rendering:geometricPrecision; image-rendering:optimizeQuality; fill-rule:evenodd; clip-rule:evenodd" xmlns:xlink="http://www.w3.org/1999/xlink">
<g><path style="opacity:1" fill="#2d5979" d="M 20.5,-0.5 C 21.8333,-0.5 23.1667,-0.5 24.5,-0.5C 24.5,1.16667 24.5,2.83333 24.5,4.5C 17.9832,6.42125 11.4832,8.42125 5,10.5C 4.50029,18.4931 4.33362,26.4931 4.5,34.5C 4.65668,35.8734 4.49001,37.2068 4,38.5C 3.07697,36.9656 2.57697,35.299 2.5,33.5C 3.56547,25.8556 3.73214,18.189 3,10.5C 2.58112,14.8518 1.91445,15.1851 1,11.5C 0.76791,12.7375 0.26791,13.7375 -0.5,14.5C -0.5,11.5 -0.5,8.5 -0.5,5.5C 6.71183,3.86918 13.7118,1.86918 20.5,-0.5 Z"/></g>
<g><path style="opacity:1" fill="#093355" d="M 24.5,-0.5 C 25.8333,-0.5 27.1667,-0.5 28.5,-0.5C 35.2882,1.86918 42.2882,3.86918 49.5,5.5C 49.5,15.1667 49.5,24.8333 49.5,34.5C 48.5267,35.984 47.1933,36.484 45.5,36C 45.9574,35.586 46.2907,35.086 46.5,34.5C 46.2005,25.8178 45.2005,17.4845 43.5,9.5C 37.0216,8.29734 30.6882,6.63068 24.5,4.5C 24.5,2.83333 24.5,1.16667 24.5,-0.5 Z"/></g>
<g><path style="opacity:1" fill="#7c8f9e" d="M 24.5,7.5 C 24.5,9.16667 24.5,10.8333 24.5,12.5C 18.426,13.5186 12.426,14.8519 6.5,16.5C 6.5,14.8333 6.5,13.1667 6.5,11.5C 12.5,10.1667 18.5,8.83333 24.5,7.5 Z"/></g>
<g><path style="opacity:1" fill="#123455" d="M 24.5,7.5 C 30.5463,8.62657 36.5463,9.95991 42.5,11.5C 42.5,13.1667 42.5,14.8333 42.5,16.5C 36.4537,15.3734 30.4537,14.0401 24.5,12.5C 24.5,10.8333 24.5,9.16667 24.5,7.5 Z"/></g>
<g><path style="opacity:1" fill="#8698a4" d="M 24.5,12.5 C 30.4537,14.0401 36.4537,15.3734 42.5,16.5C 42.8229,22.69 42.4896,28.69 41.5,34.5C 41.666,29.1563 41.4994,23.8229 41,18.5C 40.6667,23.5 40.3333,28.5 40,33.5C 39.586,33.0426 39.086,32.7093 38.5,32.5C 37.646,33.5217 36.646,34.3551 35.5,35C 37.6145,35.4244 38.4479,36.5911 38,38.5C 35.2966,35.2625 32.4633,34.9292 29.5,37.5C 28.7337,35.3157 28.0671,32.9823 27.5,30.5C 30.307,27.7219 31.1404,24.3885 30,20.5C 28.7365,18.393 26.9032,17.393 24.5,17.5C 24.5,15.8333 24.5,14.1667 24.5,12.5 Z"/></g>
<g><path style="opacity:1" fill="#305b7b" d="M 4.5,34.5 C 6.91905,41.5913 11.2524,47.2579 17.5,51.5C 16.0328,51.1062 14.5328,50.7728 13,50.5C 11.6244,50.6842 10.7911,51.3509 10.5,52.5C 5.64535,48.3206 1.97868,43.3206 -0.5,37.5C -0.5,29.8333 -0.5,22.1667 -0.5,14.5C 0.26791,13.7375 0.76791,12.7375 1,11.5C 1.91445,15.1851 2.58112,14.8518 3,10.5C 3.73214,18.189 3.56547,25.8556 2.5,33.5C 2.57697,35.299 3.07697,36.9656 4,38.5C 4.49001,37.2068 4.65668,35.8734 4.5,34.5 Z"/></g>
<g><path style="opacity:1" fill="#bec8cd" d="M 24.5,12.5 C 24.5,14.1667 24.5,15.8333 24.5,17.5C 18.9047,18.5601 17.0714,21.8935 19,27.5C 20.0217,28.354 20.8551,29.354 21.5,30.5C 19.9967,34.3556 19.33,38.3556 19.5,42.5C 21.1667,42.5 22.8333,42.5 24.5,42.5C 24.5,45.8333 24.5,49.1667 24.5,52.5C 8.98054,45.4617 2.98054,33.4617 6.5,16.5C 12.426,14.8519 18.426,13.5186 24.5,12.5 Z"/></g>
<g><path style="opacity:1" fill="#0b3052" d="M 24.5,17.5 C 26.9032,17.393 28.7365,18.393 30,20.5C 31.1404,24.3885 30.307,27.7219 27.5,30.5C 28.0671,32.9823 28.7337,35.3157 29.5,37.5C 29.4208,38.9305 29.7542,40.2638 30.5,41.5C 28.604,42.4656 26.604,42.7989 24.5,42.5C 22.8333,42.5 21.1667,42.5 19.5,42.5C 19.33,38.3556 19.9967,34.3556 21.5,30.5C 20.8551,29.354 20.0217,28.354 19,27.5C 17.0714,21.8935 18.9047,18.5601 24.5,17.5 Z"/></g>
<g><path style="opacity:1" fill="#80919e" d="M 41.5,34.5 C 38.6228,43.0463 32.9562,49.0463 24.5,52.5C 24.5,49.1667 24.5,45.8333 24.5,42.5C 26.604,42.7989 28.604,42.4656 30.5,41.5C 29.7542,40.2638 29.4208,38.9305 29.5,37.5C 32.4633,34.9292 35.2966,35.2625 38,38.5C 38.4479,36.5911 37.6145,35.4244 35.5,35C 36.646,34.3551 37.646,33.5217 38.5,32.5C 39.086,32.7093 39.586,33.0426 40,33.5C 40.3333,28.5 40.6667,23.5 41,18.5C 41.4994,23.8229 41.666,29.1563 41.5,34.5 Z"/></g>
<g><path style="opacity:1" fill="#1a3959" d="M 43.5,9.5 C 45.2005,17.4845 46.2005,25.8178 46.5,34.5C 46.2907,35.086 45.9574,35.586 45.5,36C 47.1933,36.484 48.5267,35.984 49.5,34.5C 49.5,35.5 49.5,36.5 49.5,37.5C 44.8588,48.1412 37.1922,55.8078 26.5,60.5C 25.1667,60.5 23.8333,60.5 22.5,60.5C 18.251,58.2589 14.251,55.5923 10.5,52.5C 10.7911,51.3509 11.6244,50.6842 13,50.5C 14.5328,50.7728 16.0328,51.1062 17.5,51.5C 19.2554,52.0722 20.9221,52.9055 22.5,54C 33.3382,51.8406 40.5048,45.3406 44,34.5C 44.801,26.0881 44.6344,17.7548 43.5,9.5 Z"/></g>
</svg>
